<?xml version="1.0" encoding="UTF-8"?>
<!DOCTYPE svg PUBLIC "-//W3C//DTD SVG 1.1//EN" "http://www.w3.org/Graphics/SVG/1.1/DTD/svg11.dtd">
<svg xmlns="http://www.w3.org/2000/svg" version="1.1" width="1000px" height="1000px" style="shape-rendering:geometricPrecision; text-rendering:geometricPrecision; image-rendering:optimizeQuality; fill-rule:evenodd; clip-rule:evenodd" xmlns:xlink="http://www.w3.org/1999/xlink">
<g><path style="opacity:0.124" fill="#e4e0e5" d="M 875.5,357.5 C 865.5,358.833 855.5,358.833 845.5,357.5C 829.019,311.787 804.852,270.787 773,234.5C 778.87,255.043 783.204,276.043 786,297.5C 789.881,354.038 783.881,409.372 768,463.5C 766.14,469.601 763.974,475.601 761.5,481.5C 795.589,491.615 830.589,496.282 866.5,495.5C 866.086,490.237 866.086,484.904 866.5,479.5C 875.167,479.5 883.833,479.5 892.5,479.5C 894.24,536.468 883.24,590.468 859.5,641.5C 858.167,641.5 856.833,641.5 855.5,641.5C 855.357,643.262 855.691,644.929 856.5,646.5C 854.238,647.345 853.571,648.678 854.5,650.5C 852.238,651.345 851.571,652.678 852.5,654.5C 850.238,655.345 849.571,656.678 850.5,658.5C 849.91,659.799 848.91,660.632 847.5,661C 848.451,661.718 848.617,662.551 848,663.5C 845.82,664.346 844.32,665.846 843.5,668C 843.836,669.03 844.503,669.53 845.5,669.5C 790.123,766.801 709.123,830.635 602.5,861C 492.8,887.76 389.8,873.094 293.5,817C 189.521,750.121 128.021,655.954 109,534.5C 108.138,532.913 107.471,531.246 107,529.5C 106.5,512.837 106.333,496.17 106.5,479.5C 107.5,479.5 108.5,479.5 109.5,479.5C 109.5,464.167 109.5,448.833 109.5,433.5C 127.167,433.5 144.833,433.5 162.5,433.5C 165.143,438.132 168.143,442.465 171.5,446.5C 171.5,457.5 171.5,468.5 171.5,479.5C 179.833,479.5 188.167,479.5 196.5,479.5C 202.552,486.545 208.552,493.545 214.5,500.5C 218.066,505.573 222.232,510.24 227,514.5C 227.483,513.552 227.649,512.552 227.5,511.5C 229.339,500.494 232.339,489.827 236.5,479.5C 240.514,479.666 244.514,479.499 248.5,479C 251.167,474 253.833,469 256.5,464C 260.152,463.501 263.818,463.335 267.5,463.5C 269.367,465.812 269.867,468.479 269,471.5C 261.983,490.697 256.15,510.364 251.5,530.5C 247.95,527.096 244.617,523.429 241.5,519.5C 230.186,518.501 218.853,518.168 207.5,518.5C 207.5,522.833 207.5,527.167 207.5,531.5C 179.109,504.777 154.776,474.777 134.5,441.5C 127.874,509.012 138.541,573.345 166.5,634.5C 169.464,641.75 172.797,648.75 176.5,655.5C 185.054,669.246 193.888,682.913 203,696.5C 210.322,706.317 218.155,715.65 226.5,724.5C 217.621,696.977 212.954,668.644 212.5,639.5C 220.833,639.5 229.167,639.5 237.5,639.5C 238.167,615.833 238.833,592.167 239.5,568.5C 240.833,570.5 242.167,572.5 243.5,574.5C 237.108,616.184 238.608,657.518 248,698.5C 255.048,726.261 267.714,751.261 286,773.5C 292.032,779.756 298.532,785.423 305.5,790.5C 315.012,774.804 324.512,759.137 334,743.5C 335.803,739.918 337.303,736.251 338.5,732.5C 339.822,732.33 340.989,732.663 342,733.5C 345.264,742.849 350.764,750.515 358.5,756.5C 349.415,772.341 340.081,788.008 330.5,803.5C 330.833,803.833 331.167,804.167 331.5,804.5C 361.186,815.578 391.52,817.411 422.5,810C 470.348,797.907 513.348,775.907 551.5,744C 523.919,734.043 496.919,722.709 470.5,710C 467.647,708.57 464.647,707.737 461.5,707.5C 461.168,697.478 461.501,687.478 462.5,677.5C 463.086,677.291 463.586,676.957 464,676.5C 498.941,693.848 534.774,708.681 571.5,721C 573.833,721.667 576.167,721.667 578.5,721C 581.841,717.955 585.174,714.955 588.5,712C 600.495,711.5 612.495,711.333 624.5,711.5C 624.657,712.873 624.49,714.207 624,715.5C 618.5,720.667 613,725.833 607.5,731C 650.993,744.885 695.659,750.219 741.5,747C 745.573,746.488 749.573,745.655 753.5,744.5C 815.679,683.808 852.345,610.808 863.5,525.5C 839.523,525.005 815.856,522.338 792.5,517.5C 790.5,517.5 788.5,517.5 786.5,517.5C 742.342,507.278 699.509,493.611 658,476.5C 657.726,466.808 657.226,457.141 656.5,447.5C 658.199,447.34 659.866,447.506 661.5,448C 676.583,454.717 691.917,460.551 707.5,465.5C 707.5,470.167 707.5,474.833 707.5,479.5C 717.833,479.5 728.167,479.5 738.5,479.5C 738.5,473.833 738.5,468.167 738.5,462.5C 745.723,437.755 751.39,412.422 755.5,386.5C 763.167,386.5 770.833,386.5 778.5,386.5C 778.5,377.167 778.5,367.833 778.5,358.5C 771.412,358.795 764.412,358.462 757.5,357.5C 762.133,313.746 756.633,271.413 741,230.5C 730.898,206.911 716.065,186.911 696.5,170.5C 684.751,190.328 673.251,210.328 662,230.5C 660.416,231.861 658.582,232.528 656.5,232.5C 656.665,229.15 656.498,225.817 656,222.5C 652.913,215.986 649.08,209.986 644.5,204.5C 653.162,188.322 662.495,172.489 672.5,157C 650.957,147.275 628.291,143.275 604.5,145C 560.655,150.389 520.322,165.056 483.5,189C 457.625,205.696 433.625,224.863 411.5,246.5C 399.185,247.499 386.851,247.832 374.5,247.5C 374.232,245.901 374.566,244.568 375.5,243.5C 375.56,244.043 375.893,244.376 376.5,244.5C 385.317,236.85 393.651,228.683 401.5,220C 401.272,219.601 400.938,219.435 400.5,219.5C 446.07,174.654 499.07,142.82 559.5,124C 565.102,122.702 570.769,121.702 576.5,121C 480.172,101.313 390.172,116.647 306.5,167C 304.415,168.041 302.748,169.541 301.5,171.5C 318.483,199.613 338.483,225.446 361.5,249C 358.385,252.494 354.885,255.661 351,258.5C 348.906,260.921 347.24,263.588 346,266.5C 345.196,267.804 344.029,268.471 342.5,268.5C 317.312,244.097 295.979,216.764 278.5,186.5C 209.514,239.75 164.514,308.417 143.5,392.5C 144.217,396.701 145.551,400.701 147.5,404.5C 135.5,404.5 123.5,404.5 111.5,404.5C 135.461,293.497 195.127,206.664 290.5,144C 381.767,89.3259 480.433,72.6592 586.5,94C 691.073,119.574 773.239,177.408 833,267.5C 850.669,295.956 864.836,325.956 875.5,357.5 Z M 569.5,404.5 C 560.5,404.5 551.5,404.5 542.5,404.5C 542.5,388.833 542.5,373.167 542.5,357.5C 536.5,357.5 530.5,357.5 524.5,357.5C 524.5,349.167 524.5,340.833 524.5,332.5C 539.5,332.5 554.5,332.5 569.5,332.5C 569.5,356.5 569.5,380.5 569.5,404.5 Z M 162.5,433.5 C 165.5,433.5 168.5,433.5 171.5,433.5C 171.5,437.833 171.5,442.167 171.5,446.5C 168.143,442.465 165.143,438.132 162.5,433.5 Z M 569.5,434.5 C 569.5,448.5 569.5,462.5 569.5,476.5C 560.5,476.5 551.5,476.5 542.5,476.5C 542.5,462.5 542.5,448.5 542.5,434.5C 551.5,434.5 560.5,434.5 569.5,434.5 Z M 207.5,531.5 C 207.5,567.5 207.5,603.5 207.5,639.5C 209.167,639.5 210.833,639.5 212.5,639.5C 212.954,668.644 217.621,696.977 226.5,724.5C 218.155,715.65 210.322,706.317 203,696.5C 193.888,682.913 185.054,669.246 176.5,655.5C 174.307,647.902 170.974,640.902 166.5,634.5C 138.541,573.345 127.874,509.012 134.5,441.5C 154.776,474.777 179.109,504.777 207.5,531.5 Z M 425.5,479.5 C 440.833,479.5 456.167,479.5 471.5,479.5C 471.5,492.167 471.5,504.833 471.5,517.5C 456.167,517.5 440.833,517.5 425.5,517.5C 425.5,504.833 425.5,492.167 425.5,479.5 Z M 792.5,517.5 C 815.856,522.338 839.523,525.005 863.5,525.5C 852.345,610.808 815.679,683.808 753.5,744.5C 749.573,745.655 745.573,746.488 741.5,747C 695.659,750.219 650.993,744.885 607.5,731C 613,725.833 618.5,720.667 624,715.5C 624.49,714.207 624.657,712.873 624.5,711.5C 612.495,711.333 600.495,711.5 588.5,712C 585.174,714.955 581.841,717.955 578.5,721C 576.167,721.667 573.833,721.667 571.5,721C 534.774,708.681 498.941,693.848 464,676.5C 463.586,676.957 463.086,677.291 462.5,677.5C 461.501,687.478 461.168,697.478 461.5,707.5C 464.647,707.737 467.647,708.57 470.5,710C 496.919,722.709 523.919,734.043 551.5,744C 513.348,775.907 470.348,797.907 422.5,810C 391.52,817.411 361.186,815.578 331.5,804.5C 331.167,804.167 330.833,803.833 330.5,803.5C 340.081,788.008 349.415,772.341 358.5,756.5C 350.764,750.515 345.264,742.849 342,733.5C 340.989,732.663 339.822,732.33 338.5,732.5C 337.303,736.251 335.803,739.918 334,743.5C 324.512,759.137 315.012,774.804 305.5,790.5C 298.532,785.423 292.032,779.756 286,773.5C 267.714,751.261 255.048,726.261 248,698.5C 238.608,657.518 237.108,616.184 243.5,574.5C 261.601,595.837 279.601,617.337 297.5,639C 308.828,639.5 320.162,639.667 331.5,639.5C 331.5,635.167 331.5,630.833 331.5,626.5C 337.5,626.5 343.5,626.5 349.5,626.5C 349.5,630.833 349.5,635.167 349.5,639.5C 357.167,639.5 364.833,639.5 372.5,639.5C 372.333,667.835 372.5,696.169 373,724.5C 390.423,725.492 407.923,725.825 425.5,725.5C 425.5,696.833 425.5,668.167 425.5,639.5C 452.502,639.667 479.502,639.5 506.5,639C 515.186,636.313 520.353,630.479 522,621.5C 522.5,602.503 522.667,583.503 522.5,564.5C 506.5,564.5 490.5,564.5 474.5,564.5C 474.5,558.5 474.5,552.5 474.5,546.5C 490.5,546.5 506.5,546.5 522.5,546.5C 522.5,540.833 522.5,535.167 522.5,529.5C 528.5,529.5 534.5,529.5 540.5,529.5C 540.5,566.167 540.5,602.833 540.5,639.5C 550.167,639.5 559.833,639.5 569.5,639.5C 569.178,651.747 569.512,663.914 570.5,676C 587.5,676.667 604.5,676.667 621.5,676C 622.491,659.911 622.825,643.744 622.5,627.5C 625.962,626.518 629.629,626.185 633.5,626.5C 633.5,630.833 633.5,635.167 633.5,639.5C 643.833,639.5 654.167,639.5 664.5,639.5C 664.5,635.167 664.5,630.833 664.5,626.5C 666.792,626.756 668.959,626.423 671,625.5C 671.817,610.122 671.65,594.789 670.5,579.5C 686.156,578.667 701.823,578.167 717.5,578C 719.133,577.52 720.466,576.687 721.5,575.5C 721.5,596.833 721.5,618.167 721.5,639.5C 731.833,639.5 742.167,639.5 752.5,639.5C 752.5,608.5 752.5,577.5 752.5,546.5C 765.833,546.5 779.167,546.5 792.5,546.5C 792.5,536.833 792.5,527.167 792.5,517.5 Z M 428.5,578.5 C 437.167,578.5 445.833,578.5 454.5,578.5C 454.5,583.5 454.5,588.5 454.5,593.5C 466.833,593.5 479.167,593.5 491.5,593.5C 491.5,599.5 491.5,605.5 491.5,611.5C 470.5,611.5 449.5,611.5 428.5,611.5C 428.5,600.5 428.5,589.5 428.5,578.5 Z M 581.5,754.5 C 603.035,759.986 624.701,765.153 646.5,770C 668.995,773.657 691.662,775.991 714.5,777C 626.294,838.909 528.961,859.243 422.5,838C 451.494,832.584 478.827,822.917 504.5,809C 528.834,794.832 552.168,779.166 574.5,762C 577.088,759.584 579.422,757.084 581.5,754.5 Z"/></g>
<g><path style="opacity:0.045" fill="#e6dfe6" d="M 400.5,219.5 C 400.938,219.435 401.272,219.601 401.5,220C 393.651,228.683 385.317,236.85 376.5,244.5C 375.893,244.376 375.56,244.043 375.5,243.5C 383.807,235.528 392.14,227.528 400.5,219.5 Z"/></g>
<g><path style="opacity:0.126" fill="#e4e0e5" d="M 622.5,357.5 C 620.495,358.039 618.495,358.705 616.5,359.5C 604.167,374.167 591.833,388.833 579.5,403.5C 577.604,404.466 575.604,404.799 573.5,404.5C 573.667,380.164 573.5,355.831 573,331.5C 571.869,332.604 571.035,332.271 570.5,330.5C 553.672,329.833 537.005,329.167 520.5,328.5C 520.333,312.497 520.5,296.497 521,280.5C 537.089,279.509 553.256,279.175 569.5,279.5C 569.5,263.5 569.5,247.5 569.5,231.5C 587.167,231.5 604.833,231.5 622.5,231.5C 622.5,273.5 622.5,315.5 622.5,357.5 Z"/></g>
<g><path style="opacity:0.124" fill="#e5e1e6" d="M 425.5,357.5 C 411.506,358.036 397.506,358.869 383.5,360C 374.027,363.989 369.694,371.155 370.5,381.5C 356.167,381.5 341.833,381.5 327.5,381.5C 327.5,391.167 327.5,400.833 327.5,410.5C 321.418,399.954 316.085,388.954 311.5,377.5C 315.833,377.5 320.167,377.5 324.5,377.5C 324.5,362.167 324.5,346.833 324.5,331.5C 340.812,332.789 357.145,332.789 373.5,331.5C 374.145,330.354 374.978,329.354 376,328.5C 376.5,313.504 376.667,298.504 376.5,283.5C 375.167,283.5 373.833,283.5 372.5,283.5C 372.33,282.178 372.663,281.011 373.5,280C 390.741,279.175 407.907,279.342 425,280.5C 425.5,306.165 425.667,331.831 425.5,357.5 Z"/></g>
<g><path style="opacity:0.057" fill="#e3dfe5" d="M 372.5,283.5 C 373.833,283.5 375.167,283.5 376.5,283.5C 376.667,298.504 376.5,313.504 376,328.5C 374.978,329.354 374.145,330.354 373.5,331.5C 357.145,332.789 340.812,332.789 324.5,331.5C 324.5,330.5 324.5,329.5 324.5,328.5C 340.503,328.667 356.503,328.5 372.5,328C 372.533,313.376 372.533,298.542 372.5,283.5 Z"/></g>
<g><path style="opacity:0.058" fill="#e3dfe4" d="M 520.5,328.5 C 537.005,329.167 553.672,329.833 570.5,330.5C 571.035,332.271 571.869,332.604 573,331.5C 573.5,355.831 573.667,380.164 573.5,404.5C 572.167,404.5 570.833,404.5 569.5,404.5C 569.5,380.5 569.5,356.5 569.5,332.5C 554.5,332.5 539.5,332.5 524.5,332.5C 524.5,340.833 524.5,349.167 524.5,357.5C 524.167,357.5 523.833,357.5 523.5,357.5C 521.532,349.567 520.865,341.234 521.5,332.5C 505.089,332.818 488.756,332.484 472.5,331.5C 472.5,330.5 472.5,329.5 472.5,328.5C 488.5,328.5 504.5,328.5 520.5,328.5 Z"/></g>
<g><path style="opacity:0.124" fill="#e5e1e6" d="M 472.5,331.5 C 488.756,332.484 505.089,332.818 521.5,332.5C 520.865,341.234 521.532,349.567 523.5,357.5C 520.038,358.482 516.371,358.815 512.5,358.5C 512.5,366.167 512.5,373.833 512.5,381.5C 506.5,381.5 500.5,381.5 494.5,381.5C 493.336,367.335 485.669,359.335 471.5,357.5C 471.174,348.651 471.507,339.984 472.5,331.5 Z"/></g>
<g><path style="opacity:0.975" fill="#fefefe" d="M 111.5,404.5 C 123.5,404.5 135.5,404.5 147.5,404.5C 155.5,404.5 163.5,404.5 171.5,404.5C 171.5,388.833 171.5,373.167 171.5,357.5C 181.833,357.5 192.167,357.5 202.5,357.5C 202.5,398.167 202.5,438.833 202.5,479.5C 200.5,479.5 198.5,479.5 196.5,479.5C 188.167,479.5 179.833,479.5 171.5,479.5C 171.5,468.5 171.5,457.5 171.5,446.5C 171.5,442.167 171.5,437.833 171.5,433.5C 168.5,433.5 165.5,433.5 162.5,433.5C 144.833,433.5 127.167,433.5 109.5,433.5C 109.5,448.833 109.5,464.167 109.5,479.5C 108.5,479.5 107.5,479.5 106.5,479.5C 97.1667,479.5 87.8333,479.5 78.5,479.5C 78.5,438.833 78.5,398.167 78.5,357.5C 88.8333,357.5 99.1667,357.5 109.5,357.5C 108.849,373.536 109.516,389.202 111.5,404.5 Z M 162.5,433.5 C 165.5,433.5 168.5,433.5 171.5,433.5C 171.5,437.833 171.5,442.167 171.5,446.5C 168.143,442.465 165.143,438.132 162.5,433.5 Z"/></g>
<g><path style="opacity:0.97" fill="#fefefe" d="M 311.5,377.5 C 316.085,388.954 321.418,399.954 327.5,410.5C 337.268,433.373 347.601,456.039 358.5,478.5C 347.515,479.666 336.515,479.832 325.5,479C 322.833,474 320.167,469 317.5,464C 300.837,463.5 284.17,463.333 267.5,463.5C 263.818,463.335 260.152,463.501 256.5,464C 253.833,469 251.167,474 248.5,479C 244.514,479.499 240.514,479.666 236.5,479.5C 229.492,479.666 222.492,479.5 215.5,479C 234.26,438.893 252.926,398.726 271.5,358.5C 281.817,357.334 292.151,357.168 302.5,358C 305.643,364.451 308.643,370.951 311.5,377.5 Z M 275.5,422.5 C 275.232,425.119 275.565,427.619 276.5,430C 285.16,430.5 293.827,430.666 302.5,430.5C 303.391,431.261 304.058,432.261 304.5,433.5C 292.848,434.666 281.181,434.833 269.5,434C 271.42,430.035 273.42,426.202 275.5,422.5 Z"/></g>
<g><path style="opacity:0.982" fill="#fefefe" d="M 425.5,357.5 C 440.833,357.5 456.167,357.5 471.5,357.5C 485.669,359.335 493.336,367.335 494.5,381.5C 494.5,388.167 494.5,394.833 494.5,401.5C 484.167,401.5 473.833,401.5 463.5,401.5C 463.5,396.5 463.5,391.5 463.5,386.5C 450.833,386.5 438.167,386.5 425.5,386.5C 417.167,386.5 408.833,386.5 400.5,386.5C 400.5,408.167 400.5,429.833 400.5,451.5C 408.833,451.5 417.167,451.5 425.5,451.5C 438.167,451.5 450.833,451.5 463.5,451.5C 463.5,446.833 463.5,442.167 463.5,437.5C 473.833,437.5 484.167,437.5 494.5,437.5C 494.886,446.9 494.386,456.234 493,465.5C 491.418,470.235 488.585,473.902 484.5,476.5C 480.419,478.526 476.085,479.526 471.5,479.5C 456.167,479.5 440.833,479.5 425.5,479.5C 412.496,479.667 399.496,479.5 386.5,479C 380.831,477.14 376.164,473.973 372.5,469.5C 372.108,467.821 371.608,466.154 371,464.5C 370.5,436.835 370.333,409.169 370.5,381.5C 369.694,371.155 374.027,363.989 383.5,360C 397.506,358.869 411.506,358.036 425.5,357.5 Z"/></g>
<g><path style="opacity:0.976" fill="#fefefe" d="M 523.5,357.5 C 523.833,357.5 524.167,357.5 524.5,357.5C 530.5,357.5 536.5,357.5 542.5,357.5C 542.5,373.167 542.5,388.833 542.5,404.5C 551.5,404.5 560.5,404.5 569.5,404.5C 570.833,404.5 572.167,404.5 573.5,404.5C 575.604,404.799 577.604,404.466 579.5,403.5C 591.833,388.833 604.167,374.167 616.5,359.5C 618.495,358.705 620.495,358.039 622.5,357.5C 633.52,357.168 644.52,357.501 655.5,358.5C 644.097,371.897 633.097,385.563 622.5,399.5C 616.326,405.511 610.659,412.011 605.5,419C 610.83,425.853 616.497,432.353 622.5,438.5C 633.133,452.245 644.133,465.745 655.5,479C 644.505,479.5 633.505,479.667 622.5,479.5C 620.473,479.662 618.473,479.495 616.5,479C 603.458,464.293 590.791,449.293 578.5,434C 575.408,433.264 572.408,433.431 569.5,434.5C 560.5,434.5 551.5,434.5 542.5,434.5C 542.5,448.5 542.5,462.5 542.5,476.5C 542.5,477.5 542.5,478.5 542.5,479.5C 532.5,479.5 522.5,479.5 512.5,479.5C 512.5,478.5 512.5,477.5 512.5,476.5C 512.5,444.833 512.5,413.167 512.5,381.5C 512.5,373.833 512.5,366.167 512.5,358.5C 516.371,358.815 520.038,358.482 523.5,357.5 Z M 569.5,434.5 C 569.5,448.5 569.5,462.5 569.5,476.5C 560.5,476.5 551.5,476.5 542.5,476.5C 542.5,462.5 542.5,448.5 542.5,434.5C 551.5,434.5 560.5,434.5 569.5,434.5 Z"/></g>
<g><path style="opacity:0.966" fill="#fefefe" d="M 757.5,357.5 C 764.412,358.462 771.412,358.795 778.5,358.5C 778.5,367.833 778.5,377.167 778.5,386.5C 770.833,386.5 763.167,386.5 755.5,386.5C 749.833,386.5 744.167,386.5 738.5,386.5C 738.5,411.833 738.5,437.167 738.5,462.5C 738.5,468.167 738.5,473.833 738.5,479.5C 728.167,479.5 717.833,479.5 707.5,479.5C 707.5,474.833 707.5,470.167 707.5,465.5C 707.5,439.167 707.5,412.833 707.5,386.5C 694.5,386.5 681.5,386.5 668.5,386.5C 668.5,376.833 668.5,367.167 668.5,357.5C 698.167,357.5 727.833,357.5 757.5,357.5 Z"/></g>
<g><path style="opacity:0.979" fill="#fefefe" d="M 845.5,357.5 C 855.5,358.833 865.5,358.833 875.5,357.5C 883.507,357.334 891.507,357.5 899.5,358C 911.299,358.8 918.466,364.967 921,376.5C 921.968,406.215 921.635,435.882 920,465.5C 914.547,477.144 905.38,481.811 892.5,479.5C 883.833,479.5 875.167,479.5 866.5,479.5C 848.497,479.667 830.497,479.5 812.5,479C 805,476.833 800.167,472 798,464.5C 797.023,433.106 797.356,401.772 799,370.5C 801.659,364.508 806.159,360.675 812.5,359C 823.451,357.65 834.451,357.15 845.5,357.5 Z M 854.5,386.5 C 860.125,407.742 863.791,429.409 865.5,451.5C 852.833,451.5 840.167,451.5 827.5,451.5C 827.5,429.833 827.5,408.167 827.5,386.5C 836.5,386.5 845.5,386.5 854.5,386.5 Z M 883.5,386.5 C 885.833,386.5 888.167,386.5 890.5,386.5C 890.5,399.167 890.5,411.833 890.5,424.5C 888.663,411.853 886.329,399.186 883.5,386.5 Z"/></g>
<g><path style="opacity:0.129" fill="#e4e0e6" d="M 425.5,386.5 C 425.5,408.167 425.5,429.833 425.5,451.5C 417.167,451.5 408.833,451.5 400.5,451.5C 400.5,429.833 400.5,408.167 400.5,386.5C 408.833,386.5 417.167,386.5 425.5,386.5 Z"/></g>
<g><path style="opacity:0.125" fill="#e4e0e5" d="M 854.5,386.5 C 864.167,386.5 873.833,386.5 883.5,386.5C 886.329,399.186 888.663,411.853 890.5,424.5C 890.5,433.5 890.5,442.5 890.5,451.5C 882.167,451.5 873.833,451.5 865.5,451.5C 863.791,429.409 860.125,407.742 854.5,386.5 Z"/></g>
<g><path style="opacity:0.116" fill="#e5e1e6" d="M 302.5,430.5 C 293.827,430.666 285.16,430.5 276.5,430C 275.565,427.619 275.232,425.119 275.5,422.5C 279.047,413.737 282.88,405.071 287,396.5C 293.006,407.508 298.173,418.842 302.5,430.5 Z"/></g>
<g><path style="opacity:0.128" fill="#e4e1e6" d="M 622.5,399.5 C 622.5,412.5 622.5,425.5 622.5,438.5C 616.497,432.353 610.83,425.853 605.5,419C 610.659,412.011 616.326,405.511 622.5,399.5 Z"/></g>
<g><path style="opacity:0.127" fill="#e5e1e6" d="M 622.5,479.5 C 622.5,507.833 622.5,536.167 622.5,564.5C 605.5,564.5 588.5,564.5 571.5,564.5C 571.5,549.167 571.5,533.833 571.5,518.5C 561.167,518.5 550.833,518.5 540.5,518.5C 540.5,522.167 540.5,525.833 540.5,529.5C 534.5,529.5 528.5,529.5 522.5,529.5C 522.5,525.833 522.5,522.167 522.5,518.5C 505.423,518.818 488.423,518.485 471.5,517.5C 471.5,504.833 471.5,492.167 471.5,479.5C 476.085,479.526 480.419,478.526 484.5,476.5C 493.833,476.5 503.167,476.5 512.5,476.5C 512.5,477.5 512.5,478.5 512.5,479.5C 522.5,479.5 532.5,479.5 542.5,479.5C 542.5,478.5 542.5,477.5 542.5,476.5C 551.5,476.5 560.5,476.5 569.5,476.5C 569.5,462.5 569.5,448.5 569.5,434.5C 572.408,433.431 575.408,433.264 578.5,434C 590.791,449.293 603.458,464.293 616.5,479C 618.473,479.495 620.473,479.662 622.5,479.5 Z"/></g>
<g><path style="opacity:0.129" fill="#e4e0e6" d="M 372.5,469.5 C 376.164,473.973 380.831,477.14 386.5,479C 399.496,479.5 412.496,479.667 425.5,479.5C 425.5,492.167 425.5,504.833 425.5,517.5C 418.388,517.583 411.721,519.417 405.5,523C 402.509,525.99 400.343,529.49 399,533.5C 398.333,563.833 398.333,594.167 399,624.5C 403.087,635.138 410.92,640.138 422.5,639.5C 422.5,667.167 422.5,694.833 422.5,722.5C 407.167,722.5 391.833,722.5 376.5,722.5C 376.5,694.833 376.5,667.167 376.5,639.5C 377.833,639.5 379.167,639.5 380.5,639.5C 380.5,599.167 380.5,558.833 380.5,518.5C 377.721,518.721 375.054,518.388 372.5,517.5C 372.5,501.5 372.5,485.5 372.5,469.5 Z"/></g>
<g><path style="opacity:0.013" fill="#e0dfdf" d="M 214.5,500.5 C 218.858,504.196 223.192,507.863 227.5,511.5C 227.649,512.552 227.483,513.552 227,514.5C 222.232,510.24 218.066,505.573 214.5,500.5 Z"/></g>
<g><path style="opacity:0.979" fill="#fefefe" d="M 331.5,574.5 C 331.5,591.833 331.5,609.167 331.5,626.5C 331.5,630.833 331.5,635.167 331.5,639.5C 320.162,639.667 308.828,639.5 297.5,639C 279.601,617.337 261.601,595.837 243.5,574.5C 242.167,572.5 240.833,570.5 239.5,568.5C 239.217,567.711 238.717,567.044 238,566.5C 237.5,590.831 237.333,615.164 237.5,639.5C 229.167,639.5 220.833,639.5 212.5,639.5C 210.833,639.5 209.167,639.5 207.5,639.5C 207.5,603.5 207.5,567.5 207.5,531.5C 207.5,527.167 207.5,522.833 207.5,518.5C 218.853,518.168 230.186,518.501 241.5,519.5C 244.617,523.429 247.95,527.096 251.5,530.5C 255.461,536.759 260.127,542.425 265.5,547.5C 273.69,558.542 282.357,569.209 291.5,579.5C 294.118,583.291 296.951,586.957 300,590.5C 300.5,566.169 300.667,541.836 300.5,517.5C 310.833,517.5 321.167,517.5 331.5,517.5C 331.5,536.5 331.5,555.5 331.5,574.5 Z"/></g>
<g><path style="opacity:0.99" fill="#fefefe" d="M 372.5,517.5 C 375.054,518.388 377.721,518.721 380.5,518.5C 380.5,558.833 380.5,599.167 380.5,639.5C 379.167,639.5 377.833,639.5 376.5,639.5C 375.167,639.5 373.833,639.5 372.5,639.5C 364.833,639.5 357.167,639.5 349.5,639.5C 349.5,635.167 349.5,630.833 349.5,626.5C 349.5,609.167 349.5,591.833 349.5,574.5C 349.5,555.5 349.5,536.5 349.5,517.5C 357.167,517.5 364.833,517.5 372.5,517.5 Z"/></g>
<g><path style="opacity:0.981" fill="#fefefe" d="M 425.5,517.5 C 440.833,517.5 456.167,517.5 471.5,517.5C 488.423,518.485 505.423,518.818 522.5,518.5C 522.5,522.167 522.5,525.833 522.5,529.5C 522.5,535.167 522.5,540.833 522.5,546.5C 506.5,546.5 490.5,546.5 474.5,546.5C 459.167,546.5 443.833,546.5 428.5,546.5C 428.5,557.167 428.5,567.833 428.5,578.5C 428.5,589.5 428.5,600.5 428.5,611.5C 449.5,611.5 470.5,611.5 491.5,611.5C 491.5,605.5 491.5,599.5 491.5,593.5C 479.167,593.5 466.833,593.5 454.5,593.5C 454.5,588.5 454.5,583.5 454.5,578.5C 454.2,573.901 454.533,569.401 455.5,565C 461.825,564.5 468.158,564.334 474.5,564.5C 490.5,564.5 506.5,564.5 522.5,564.5C 522.667,583.503 522.5,602.503 522,621.5C 520.353,630.479 515.186,636.313 506.5,639C 479.502,639.5 452.502,639.667 425.5,639.5C 424.5,639.5 423.5,639.5 422.5,639.5C 410.92,640.138 403.087,635.138 399,624.5C 398.333,594.167 398.333,563.833 399,533.5C 400.343,529.49 402.509,525.99 405.5,523C 411.721,519.417 418.388,517.583 425.5,517.5 Z M 428.5,578.5 C 437.167,578.5 445.833,578.5 454.5,578.5C 454.5,583.5 454.5,588.5 454.5,593.5C 466.833,593.5 479.167,593.5 491.5,593.5C 491.5,599.5 491.5,605.5 491.5,611.5C 470.5,611.5 449.5,611.5 428.5,611.5C 428.5,600.5 428.5,589.5 428.5,578.5 Z"/></g>
<g><path style="opacity:0.984" fill="#fefefe" d="M 664.5,574.5 C 664.5,591.833 664.5,609.167 664.5,626.5C 664.5,630.833 664.5,635.167 664.5,639.5C 654.167,639.5 643.833,639.5 633.5,639.5C 633.5,635.167 633.5,630.833 633.5,626.5C 633.5,615.5 633.5,604.5 633.5,593.5C 613.5,593.5 593.5,593.5 573.5,593.5C 572.167,608.833 570.833,624.167 569.5,639.5C 559.833,639.5 550.167,639.5 540.5,639.5C 540.5,602.833 540.5,566.167 540.5,529.5C 540.5,525.833 540.5,522.167 540.5,518.5C 550.833,518.5 561.167,518.5 571.5,518.5C 571.5,533.833 571.5,549.167 571.5,564.5C 588.5,564.5 605.5,564.5 622.5,564.5C 626.167,564.5 629.833,564.5 633.5,564.5C 633.5,548.833 633.5,533.167 633.5,517.5C 643.833,517.5 654.167,517.5 664.5,517.5C 664.5,536.5 664.5,555.5 664.5,574.5 Z"/></g>
<g><path style="opacity:0.963" fill="#fefefe" d="M 786.5,517.5 C 788.5,517.5 790.5,517.5 792.5,517.5C 792.5,527.167 792.5,536.833 792.5,546.5C 779.167,546.5 765.833,546.5 752.5,546.5C 752.5,577.5 752.5,608.5 752.5,639.5C 742.167,639.5 731.833,639.5 721.5,639.5C 721.5,618.167 721.5,596.833 721.5,575.5C 721.5,565.833 721.5,556.167 721.5,546.5C 708.5,546.5 695.5,546.5 682.5,546.5C 682.5,539.5 682.5,532.5 682.5,525.5C 682.5,522.833 682.5,520.167 682.5,517.5C 717.167,517.5 751.833,517.5 786.5,517.5 Z"/></g>
<g><path style="opacity:0.115" fill="#e4e0e5" d="M 682.5,525.5 C 682.5,532.5 682.5,539.5 682.5,546.5C 695.5,546.5 708.5,546.5 721.5,546.5C 721.5,556.167 721.5,565.833 721.5,575.5C 720.466,576.687 719.133,577.52 717.5,578C 701.823,578.167 686.156,578.667 670.5,579.5C 671.65,594.789 671.817,610.122 671,625.5C 668.959,626.423 666.792,626.756 664.5,626.5C 664.5,609.167 664.5,591.833 664.5,574.5C 665.833,574.5 667.167,574.5 668.5,574.5C 668.5,558.167 668.5,541.833 668.5,525.5C 673.167,525.5 677.833,525.5 682.5,525.5 Z"/></g>
<g><path style="opacity:0.121" fill="#e4e1e6" d="M 474.5,546.5 C 474.5,552.5 474.5,558.5 474.5,564.5C 468.158,564.334 461.825,564.5 455.5,565C 454.533,569.401 454.2,573.901 454.5,578.5C 445.833,578.5 437.167,578.5 428.5,578.5C 428.5,567.833 428.5,557.167 428.5,546.5C 443.833,546.5 459.167,546.5 474.5,546.5 Z"/></g>
<g><path style="opacity:0.098" fill="#e5e1e5" d="M 265.5,547.5 C 274.171,554.667 283.004,561.667 292,568.5C 292.638,569.609 293.138,570.775 293.5,572C 291.889,574.21 291.222,576.71 291.5,579.5C 282.357,569.209 273.69,558.542 265.5,547.5 Z"/></g>
<g><path style="opacity:0.127" fill="#e4e0e5" d="M 331.5,574.5 C 337.5,574.5 343.5,574.5 349.5,574.5C 349.5,591.833 349.5,609.167 349.5,626.5C 343.5,626.5 337.5,626.5 331.5,626.5C 331.5,609.167 331.5,591.833 331.5,574.5 Z"/></g>
<g><path style="opacity:0.063" fill="#e3dfe5" d="M 573.5,593.5 C 573.5,620.167 573.5,646.833 573.5,673.5C 588.833,673.5 604.167,673.5 619.5,673.5C 619.818,657.785 619.484,642.119 618.5,626.5C 619,626.167 619.5,625.833 620,625.5C 621.011,626.056 621.844,626.722 622.5,627.5C 622.825,643.744 622.491,659.911 621.5,676C 604.5,676.667 587.5,676.667 570.5,676C 569.512,663.914 569.178,651.747 569.5,639.5C 570.833,624.167 572.167,608.833 573.5,593.5 Z"/></g>
<g><path style="opacity:0.129" fill="#e4e1e5" d="M 573.5,593.5 C 593.5,593.5 613.5,593.5 633.5,593.5C 633.5,604.5 633.5,615.5 633.5,626.5C 629.629,626.185 625.962,626.518 622.5,627.5C 621.844,626.722 621.011,626.056 620,625.5C 619.5,625.833 619,626.167 618.5,626.5C 619.484,642.119 619.818,657.785 619.5,673.5C 604.167,673.5 588.833,673.5 573.5,673.5C 573.5,646.833 573.5,620.167 573.5,593.5 Z"/></g>
<g><path style="opacity:0.191" fill="#f5f3f5" d="M 239.5,568.5 C 238.833,592.167 238.167,615.833 237.5,639.5C 237.333,615.164 237.5,590.831 238,566.5C 238.717,567.044 239.217,567.711 239.5,568.5 Z"/></g>
<g><path style="opacity:0.009" fill="#dfdfe0" d="M 166.5,634.5 C 170.974,640.902 174.307,647.902 176.5,655.5C 172.797,648.75 169.464,641.75 166.5,634.5 Z"/></g>
<g><path style="opacity:0.054" fill="#e3dfe5" d="M 372.5,639.5 C 373.833,639.5 375.167,639.5 376.5,639.5C 376.5,667.167 376.5,694.833 376.5,722.5C 391.833,722.5 407.167,722.5 422.5,722.5C 422.5,694.833 422.5,667.167 422.5,639.5C 423.5,639.5 424.5,639.5 425.5,639.5C 425.5,668.167 425.5,696.833 425.5,725.5C 407.923,725.825 390.423,725.492 373,724.5C 372.5,696.169 372.333,667.835 372.5,639.5 Z"/></g>
<g><path style="opacity:0.037" fill="#e6dfe6" d="M 859.5,641.5 C 855.779,651.347 851.112,660.68 845.5,669.5C 844.503,669.53 843.836,669.03 843.5,668C 844.32,665.846 845.82,664.346 848,663.5C 848.617,662.551 848.451,661.718 847.5,661C 848.91,660.632 849.91,659.799 850.5,658.5C 849.571,656.678 850.238,655.345 852.5,654.5C 851.571,652.678 852.238,651.345 854.5,650.5C 853.571,648.678 854.238,647.345 856.5,646.5C 855.691,644.929 855.357,643.262 855.5,641.5C 856.833,641.5 858.167,641.5 859.5,641.5 Z"/></g>
</svg>
